<svg id="visual" viewBox="0 0 900 600" width="900" height="600" xmlns="http://www.w3.org/2000/svg" xmlns:xlink="http://www.w3.org/1999/xlink" version="1.1"><rect x="0" y="0" width="900" height="600" fill="#00000000"></rect><defs><linearGradient id="grad1_0" x1="33.3%" y1="0%" x2="100%" y2="100%"><stop offset="20%" stop-color="#ff0066" stop-opacity="1"></stop><stop offset="80%" stop-color="#ff0066" stop-opacity="1"></stop></linearGradient></defs><defs><linearGradient id="grad2_0" x1="0%" y1="0%" x2="66.7%" y2="100%"><stop offset="20%" stop-color="#ff0066" stop-opacity="1"></stop><stop offset="80%" stop-color="#ff0066" stop-opacity="1"></stop></linearGradient></defs><g transform="translate(900, 0)"><path d="M0 243.4C-36.2 243 -72.4 242.7 -91.8 221.7C-111.3 200.8 -114.1 159.2 -137.2 137.2C-160.3 115.2 -203.8 112.7 -224.8 93.1C-245.9 73.5 -244.7 36.8 -243.4 0L0 0Z" fill="#6528f7"></path></g><g transform="translate(0, 600)"><path d="M0 -243.4C35.3 -242.1 70.6 -240.9 91.8 -221.7C113.1 -202.6 120.4 -165.6 143.5 -143.5C166.7 -121.5 205.6 -114.6 224.8 -93.1C244.1 -71.7 243.7 -35.9 243.4 0L0 0Z" fill="#6528f7"></path></g></svg>