<svg id="visual" viewBox="0 0 900 600" width="900" height="600" xmlns="http://www.w3.org/2000/svg" xmlns:xlink="http://www.w3.org/1999/xlink" version="1.1"><rect x="0" y="0" width="900" height="600" fill="#00000000"></rect><defs><linearGradient id="grad1_0" x1="33.3%" y1="100%" x2="100%" y2="0%"><stop offset="20%" stop-color="#ff0066" stop-opacity="1"></stop><stop offset="80%" stop-color="#ff0066" stop-opacity="1"></stop></linearGradient></defs><defs><linearGradient id="grad2_0" x1="0%" y1="100%" x2="66.7%" y2="0%"><stop offset="20%" stop-color="#ff0066" stop-opacity="1"></stop><stop offset="80%" stop-color="#ff0066" stop-opacity="1"></stop></linearGradient></defs><g transform="translate(900, 600)"><path d="M-243.4 0C-233.4 -30.6 -223.4 -61.2 -208.8 -86.5C-194.2 -111.8 -175 -131.8 -156.3 -156.3C-137.5 -180.7 -119.1 -209.6 -93.1 -224.8C-67.2 -240.1 -33.6 -241.7 0 -243.4L0 0Z" fill="#6528f7"></path></g><g transform="translate(0, 0)"><path d="M243.4 0C227.5 28.2 211.7 56.5 197.7 81.9C183.7 107.3 171.6 130 155.6 155.6C139.6 181.2 119.7 209.7 93.1 224.8C66.6 240 33.3 241.7 0 243.4L0 0Z" fill="#6528f7"></path></g></svg>