<svg id="visual" viewBox="0 0 900 600" width="900" height="600" xmlns="http://www.w3.org/2000/svg" xmlns:xlink="http://www.w3.org/1999/xlink" version="1.1"><path d="M0 118L21.5 119C43 120 86 122 128.8 128.7C171.7 135.3 214.3 146.7 257.2 140.5C300 134.3 343 110.7 385.8 113C428.7 115.3 471.3 143.7 514.2 156C557 168.3 600 164.7 642.8 149.8C685.7 135 728.3 109 771.2 99.8C814 90.7 857 98.3 878.5 102.2L900 106L900 0L878.5 0C857 0 814 0 771.2 0C728.3 0 685.7 0 642.8 0C600 0 557 0 514.2 0C471.3 0 428.7 0 385.8 0C343 0 300 0 257.2 0C214.3 0 171.7 0 128.8 0C86 0 43 0 21.5 0L0 0Z" fill="#6528f7" stroke-linecap="round" stroke-linejoin="miter"></path></svg>